<?xml version="1.0" encoding="UTF-8"?>
<!DOCTYPE svg PUBLIC "-//W3C//DTD SVG 1.1//EN" "http://www.w3.org/Graphics/SVG/1.1/DTD/svg11.dtd">
<!-- Creator: CorelDRAW X6 -->
<svg xmlns="http://www.w3.org/2000/svg" xml:space="preserve" width="4.22222in" height="5.94444in" version="1.1" style="shape-rendering:geometricPrecision; text-rendering:geometricPrecision; image-rendering:optimizeQuality; fill-rule:evenodd; clip-rule:evenodd"
viewBox="0 0 4222 5944"
 xmlns:xlink="http://www.w3.org/1999/xlink">
 <defs>
  <style type="text/css">
   <![CDATA[
    .fil3 {fill:#ffffff;fill-rule:nonzero}
    .fil2 {fill:#ffffff;fill-rule:nonzero}
    .fil1 {fill:url(#id0)}
    .fil0 {fill:url(#id1)}
   ]]>
  </style>
  <linearGradient id="id0" gradientUnits="userSpaceOnUse" x1="0.00393701" y1="2216.66" x2="4228.48" y2="2216.66">
   <stop offset="0" style="stop-color:#96D1F2"/>
   <stop offset="1" style="stop-color:#1698D4"/>
  </linearGradient>
  <linearGradient id="id1" gradientUnits="userSpaceOnUse" x1="0.00393701" y1="2216.66" x2="4228.48" y2="2216.66">
   <stop offset="0" style="stop-color:#DAF1FC"/>
   <stop offset="1" style="stop-color:#B1D7F2"/>
  </linearGradient>
 </defs>
 <g id="Layer_x0020_1">
  <metadata id="CorelCorpID_0Corel-Layer"/>
  <path class="fil0" d="M3380 566l729 999 2 1249 -731 -2248zm-30 3346l-1217 398 1961 -1425 -744 1027zm-1217 -1670l1943 620 -1943 1412 0 -2032zm1210 -1695l743 2287 -1944 -620 1201 -1667zm-1225 1650l-1207 -1670 2409 0 -1202 1670zm-15 2082l-1950 -1417 1950 -620 0 2037zm-1219 -362l-754 -1035 1961 1425 -1206 -390zm3 -3372l1207 1669 -1951 620 744 -2289zm-768 1028l732 -1011 -730 2247 -2 -1236zm1993 -1453l1169 378 -2325 0 1156 -378zm2116 1446l0 -38 -23 -31 -764 -1048 -23 -31 -36 -12 -1234 -399 -37 -12 0 0 -36 12 -1232 403 -37 12 -23 31 -760 1050 -23 31 0 38 2 1296 0 38 23 31 764 1048 23 31 37 12 1234 399 37 12 37 -12 1232 -403 37 -12 23 -31 760 -1050 23 -31 0 -38 -2 -1296z"/>
  <path class="fil1" d="M4108 2868l-729 999 731 -2248 -2 1249zm-1967 -648l1944 -620 -743 2287 -1201 -1667zm-1231 1687l1207 -1670 1202 1670 -2409 0zm1200 407l-1156 -378 2325 0 -1169 378zm-1968 -2714l1951 620 -1207 1669 -744 -2289zm-25 1261l2 -1236 730 2247 -732 -1011zm1984 -2706l0 2037 -1950 -620 1950 -1417zm-1219 362l1206 -390 -1961 1425 754 -1035zm1248 -357l1943 1412 -1943 620 0 -2032zm1217 361l744 1027 -1961 -1425 1217 398zm96 -69l-23 -31 -37 -12 -1232 -403 -37 -12 0 0 -37 12 -1234 399 -37 12 -23 31 -764 1048 -23 31 0 38 -2 1296 0 38 23 31 760 1050 23 31 37 12 1232 403 36 12 37 -12 1234 -399 36 -12 23 -31 764 -1048 23 -31 0 -38 2 -1296 0 -38 -23 -31 -760 -1050z"/>
  <path class="fil2" d="M2940 5043c0,-54 -19,-100 -51,-132 -42,-42 -107,-66 -188,-66l-284 0 0 661 75 0 0 -86 0 0 0 -263 0 0 0 -242 204 0c107,0 169,49 169,130 0,87 -71,138 -170,138l-65 0 50 67 0 0 29 39 99 132 -1 0 64 86 92 0 -203 -270c104,-19 179,-83 179,-193zm474 -203l-70 0 -301 666 76 0 259 -579 150 337 -224 0 -30 67 284 0 78 175 80 0 -301 -666zm-2249 666l75 0 0 -288 358 0 0 -68 -358 0 0 -236 400 0 0 -69 -475 0 0 661zm-368 -366c-145,-31 -179,-66 -179,-128 0,-61 55,-109 141,-109 68,0 129,22 191,72l43 -57c-67,-54 -136,-81 -232,-81 -126,0 -217,77 -217,180 0,110 70,160 222,193 139,29 172,64 172,126 0,67 -59,114 -147,114 -92,0 -158,-31 -227,-93l-46 55c79,71 165,106 270,106 131,0 226,-74 226,-187 0,-103 -68,-157 -215,-189zm1062 67l361 0 0 -68 -361 0 0 -226 403 0 0 -68 -478 0 0 661 482 0 0 -68 -408 0 0 -231z"/>
  <polygon class="fil3" points="1212,5899 1233,5899 1233,5698 1212,5698 "/>
  <path class="fil3" d="M1286 5756l21 0 0 143 -21 0 0 -143zm-1 -55l24 0 0 23 -24 0 0 -23z"/>
  <polygon class="fil3" points="1344,5756 1367,5756 1415,5875 1464,5756 1487,5756 1424,5900 1405,5900 "/>
  <path class="fil3" d="M1523 5756l21 0 0 143 -21 0 0 -143zm-1 -55l24 0 0 23 -24 0 0 -23z"/>
  <path class="fil3" d="M1596 5756l21 0 0 25c9,-15 24,-28 49,-28 35,0 55,23 55,57l0 89 -21 0 0 -84c0,-27 -14,-43 -40,-43 -25,0 -43,18 -43,45l0 82 -21 0 0 -143z"/>
  <path class="fil3" d="M1885 5821l0 -1c0,-29 -25,-48 -53,-48 -27,0 -50,19 -50,48l0 1c0,29 23,49 50,49 27,0 53,-20 53,-48zm-117 103l10 -17c16,12 35,18 55,18 32,0 52,-17 52,-51l0 -17c-12,17 -30,30 -56,30 -34,0 -67,-26 -67,-67l0 -1c0,-42 33,-67 67,-67 27,0 44,13 56,29l0 -26 21 0 0 118c0,22 -7,39 -18,51 -13,13 -32,19 -54,19 -24,0 -46,-7 -65,-20z"/>
  <path class="fil3" d="M2024 5881l11 -15c15,12 33,18 50,18 17,0 30,-9 30,-23l0 -1c0,-14 -17,-20 -36,-25 -22,-6 -47,-14 -47,-40l0 -1c0,-25 20,-41 49,-41 17,0 37,6 51,16l-10 16c-13,-9 -28,-14 -42,-14 -17,0 -28,9 -28,21l0 1c0,14 18,19 37,25 22,7 46,15 46,41l0 1c0,27 -22,43 -51,43 -20,0 -43,-8 -59,-21z"/>
  <path class="fil3" d="M2283 5756l23 0 -60 148c-12,29 -26,40 -47,40l-2 0c-11,0 -20,-3 -29,-7l7 -17c7,4 13,5 22,5 13,0 21,-7 29,-27l-65 -142 24 0 52 119 46 -119z"/>
  <path class="fil3" d="M2327 5881l11 -15c15,12 33,18 49,18 17,0 30,-9 30,-23l0 -1c0,-14 -17,-20 -36,-25 -22,-6 -47,-14 -47,-40l0 -1c0,-25 20,-41 49,-41 17,0 37,6 51,16l-10 16c-13,-9 -28,-14 -42,-14 -17,0 -28,9 -28,21l0 1c0,14 18,19 37,25 22,7 46,15 46,41l0 1c0,27 -22,43 -51,43 -20,0 -43,-8 -59,-21z"/>
  <path class="fil3" d="M2487 5861l0 -86 -20 0 0 -19 20 0 0 -43 21 0 0 43 45 0 0 19 -45 0 0 84c0,17 10,24 24,24 7,0 13,-1 21,-5l0 18c-7,4 -15,6 -26,6 -23,0 -40,-11 -40,-40z"/>
  <path class="fil3" d="M2693 5820c-2,-26 -17,-49 -46,-49 -25,0 -44,21 -46,49l92 0zm-114 8l0 -1c0,-41 29,-74 69,-74 42,0 67,34 67,76 0,3 0,4 0,7l-113 0c3,31 25,48 50,48 20,0 33,-8 45,-20l13 12c-14,16 -32,27 -59,27 -39,0 -71,-30 -71,-74z"/>
  <path class="fil3" d="M2756 5756l21 0 0 24c9,-14 22,-27 46,-27 23,0 38,12 46,29 10,-16 25,-29 50,-29 33,0 53,22 53,58l0 89 -21 0 0 -84c0,-28 -14,-43 -37,-43 -22,0 -40,16 -40,44l0 82 -21 0 0 -84c0,-27 -14,-43 -37,-43 -23,0 -40,19 -40,45l0 82 -21 0 0 -143z"/>
 </g>
</svg>
